# xmcd
#
# Track frame offsets: 
#        150
#        13502
#        25152
#        41805
#        56572
#        74002
#        94172
#        109095
#        126275
#        144412
#
# Disc length: 2081 seconds
#
# Revision: 1
# Processed by: cddbd v1.5.1PL2 Copyright (c) Steve Scherf et al.
# Submitted via: ExactAudioCopy v0.95a3
#
DISCID=8c081f0a
DTITLE=Wild Rose - Listen To Your Heart
DYEAR=1991
DGENRE=
TTITLE0=Listen To Your Heart
TTITLE1=There Goes My Love
TTITLE2=You Were Right From Your Side
TTITLE3=Broken Heartland
TTITLE4=Hillbilly Twist
TTITLE5=Circle Of Love
TTITLE6=I Need My Baby Back
TTITLE7=Hidden Hollow
TTITLE8=I'll Always Love You
TTITLE9=One Way Track
EXTD=
EXTT0=
EXTT1=
EXTT2=
EXTT3=
EXTT4=
EXTT5=
EXTT6=
EXTT7=
EXTT8=
EXTT9=
PLAYORDER=
